<?xml version="1.0" encoding="UTF-8" standalone="no"?>
<!DOCTYPE svg PUBLIC "-//W3C//DTD SVG 1.1//EN" "http://www.w3.org/Graphics/SVG/1.1/DTD/svg11.dtd">
<svg width="100%" height="100%" viewBox="0 0 280 384" version="1.1" xmlns="http://www.w3.org/2000/svg" xmlns:xlink="http://www.w3.org/1999/xlink" xml:space="preserve" xmlns:serif="http://www.serif.com/" style="fill-rule:evenodd;clip-rule:evenodd;stroke-linejoin:round;stroke-miterlimit:1.41421;">
    <g transform="matrix(1,0,0,1,-3566.94,-2645.62)">
        <g id="Artboard5" transform="matrix(0.981788,0,0,1.19635,216.518,-399.821)">
            <rect x="3412.57" y="2545.62" width="285.194" height="320.492" style="fill:none;"/>
            <clipPath id="_clip1">
                <rect x="3412.57" y="2545.62" width="285.194" height="320.492"/>
            </clipPath>
            <g clip-path="url(#_clip1)">
                <g transform="matrix(0.837103,0,0,0.296274,3413.15,2510.58)">
                    <rect x="0" y="120" width="340" height="1080" style="fill:rgb(0,36,26);"/>
                </g>
                <g transform="matrix(0.689643,0,0,0.666787,2509.74,2019.59)">
                    <g transform="matrix(1.42308,0,0,1.20789,-1669.41,-764.554)">
                        <path d="M2233.91,1435.78L2117.57,1435.78C2117.57,1435.78 2117.57,1463.43 2117.57,1491.77C2117.57,1507.77 2123.93,1523.12 2135.25,1534.44C2146.57,1545.76 2161.92,1552.11 2177.92,1552.11C2206.26,1552.11 2233.91,1552.11 2233.91,1552.11L2233.91,1435.78Z" style="fill:white;"/>
                    </g>
                    <g transform="matrix(1.42308,0,0,1.20789,-1491.33,-764.554)">
                        <path d="M2233.91,1435.78L2117.57,1435.78L2117.57,1552.11C2117.57,1552.11 2145.81,1552.11 2174.46,1552.11C2190.23,1552.11 2205.35,1545.85 2216.5,1534.7C2227.64,1523.56 2233.91,1508.43 2233.91,1492.67C2233.91,1464.02 2233.91,1435.78 2233.91,1435.78Z" style="fill:white;"/>
                    </g>
                    <g transform="matrix(1.42308,0,0,1.20789,-1669.41,-915.704)">
                        <path d="M2233.91,1435.78C2233.91,1435.78 2206.08,1435.78 2177.64,1435.78C2144.47,1435.78 2117.57,1462.68 2117.57,1495.85C2117.57,1524.29 2117.57,1552.11 2117.57,1552.11L2233.91,1552.11L2233.91,1435.78Z" style="fill:white;"/>
                    </g>
                    <g transform="matrix(1.42308,0,0,1.20789,-1491.33,-915.704)">
                        <path d="M2233.91,1496.1C2233.91,1480.11 2227.55,1464.76 2216.24,1453.45C2204.93,1442.14 2189.58,1435.78 2173.59,1435.78C2145.24,1435.78 2117.57,1435.78 2117.57,1435.78L2117.57,1552.11L2233.91,1552.11C2233.91,1552.11 2233.91,1524.45 2233.91,1496.1Z" style="fill:white;"/>
                    </g>
                </g>
                <g transform="matrix(5.75633,0,0,4.72397,-4978.84,-4764.67)">
                    <text x="1470.61px" y="1608.92px" style="font-family:'Oswald-Light', 'Oswald';font-weight:300;font-size:12px;fill:white;">A<tspan x="1476.69px 1482.73px 1488.61px " y="1608.92px 1608.92px 1608.92px ">KSO</tspan></text>
                </g>
            </g>
        </g>
    </g>
</svg>
