<?xml version="1.0" encoding="UTF-8" standalone="no"?>
<!DOCTYPE svg PUBLIC "-//W3C//DTD SVG 1.1//EN" "http://www.w3.org/Graphics/SVG/1.1/DTD/svg11.dtd">
<svg width="100%" height="100%" viewBox="0 0 280 384" version="1.1" xmlns="http://www.w3.org/2000/svg" xmlns:xlink="http://www.w3.org/1999/xlink" xml:space="preserve" xmlns:serif="http://www.serif.com/" style="fill-rule:evenodd;clip-rule:evenodd;stroke-linejoin:round;stroke-miterlimit:1.41421;">
    <g transform="matrix(1,0,0,1,-3566.94,-3137.54)">
        <g id="Artboard5" transform="matrix(0.981788,0,0,1.19635,216.518,92.103)">
            <rect x="3412.57" y="2545.62" width="285.194" height="320.492" style="fill:none;"/>
            <g transform="matrix(0.689643,0,0,0.666787,2509.74,2019.59)">
                <g transform="matrix(1.42308,0,0,1.20789,-1669.41,-764.554)">
                    <path d="M2233.91,1435.78L2117.57,1435.78C2117.57,1435.78 2117.57,1463.43 2117.57,1491.77C2117.57,1507.77 2123.93,1523.12 2135.25,1534.44C2146.57,1545.76 2161.92,1552.11 2177.92,1552.11C2206.26,1552.11 2233.91,1552.11 2233.91,1552.11L2233.91,1435.78Z" style="fill:white;"/>
                </g>
                <g transform="matrix(1.42308,0,0,1.20789,-1491.33,-764.554)">
                    <path d="M2233.91,1435.78L2117.57,1435.78L2117.57,1552.11C2117.57,1552.11 2145.81,1552.11 2174.46,1552.11C2190.23,1552.11 2205.35,1545.85 2216.5,1534.7C2227.64,1523.56 2233.91,1508.43 2233.91,1492.67C2233.91,1464.02 2233.91,1435.78 2233.91,1435.78Z" style="fill:white;"/>
                </g>
                <g transform="matrix(1.42308,0,0,1.20789,-1669.41,-915.704)">
                    <path d="M2233.91,1435.78C2233.91,1435.78 2206.08,1435.78 2177.64,1435.78C2144.47,1435.78 2117.57,1462.68 2117.57,1495.85C2117.57,1524.29 2117.57,1552.11 2117.57,1552.11L2233.91,1552.11L2233.91,1435.78Z" style="fill:white;"/>
                </g>
                <g transform="matrix(1.42308,0,0,1.20789,-1491.33,-915.704)">
                    <path d="M2233.91,1496.1C2233.91,1480.11 2227.55,1464.76 2216.24,1453.45C2204.93,1442.14 2189.58,1435.78 2173.59,1435.78C2145.24,1435.78 2117.57,1435.78 2117.57,1435.78L2117.57,1552.11L2233.91,1552.11C2233.91,1552.11 2233.91,1524.45 2233.91,1496.1Z" style="fill:white;"/>
                </g>
            </g>
            <g transform="matrix(1.01855,0,0,0.835879,-220.535,-76.987)">
                <path d="M3759,3485.4C3756.35,3485.4 3754.09,3485 3752.23,3484.19C3750.36,3483.39 3748.91,3482.21 3747.86,3480.65C3746.81,3479.09 3746.05,3477.33 3745.59,3475.35C3745.12,3473.38 3744.89,3471.09 3744.89,3468.48L3744.89,3445.7C3744.89,3443.12 3745.13,3440.85 3745.61,3438.91C3746.08,3436.97 3746.85,3435.25 3747.92,3433.76C3748.99,3432.27 3750.46,3431.14 3752.31,3430.37C3754.17,3429.59 3756.39,3429.21 3759,3429.21C3761.61,3429.21 3763.84,3429.59 3765.69,3430.37C3767.54,3431.14 3769.01,3432.28 3770.08,3433.78C3771.15,3435.28 3771.92,3437 3772.39,3438.94C3772.87,3440.89 3773.11,3443.14 3773.11,3445.7L3773.11,3468.55C3773.11,3470.6 3772.97,3472.45 3772.69,3474.11C3772.42,3475.77 3771.94,3477.31 3771.27,3478.75C3770.6,3480.18 3769.73,3481.38 3768.67,3482.34C3767.61,3483.3 3766.26,3484.05 3764.63,3484.59C3763,3485.13 3761.12,3485.4 3759,3485.4ZM3723.29,3433.28C3720.88,3433.35 3718.99,3433.97 3717.61,3435.17C3716.23,3436.36 3715.54,3438.16 3715.54,3440.57C3715.54,3442.07 3715.83,3443.43 3716.42,3444.66C3717,3445.88 3718,3447.18 3719.41,3448.55L3729.08,3457.72C3731.58,3460.1 3733.54,3462.51 3734.98,3464.95C3736.41,3467.39 3737.13,3470.04 3737.13,3472.89C3737.13,3476.88 3735.98,3479.96 3733.67,3482.12C3731.36,3484.29 3728.31,3485.37 3724.51,3485.37C3720.16,3485.37 3716.87,3484.06 3714.63,3481.45C3712.39,3478.83 3711.09,3475.17 3710.74,3470.47L3715.34,3469.14C3715.5,3470.6 3715.69,3471.89 3715.92,3473C3716.15,3474.12 3716.49,3475.21 3716.95,3476.28C3717.4,3477.35 3717.95,3478.23 3718.6,3478.91C3719.25,3479.6 3720.08,3480.15 3721.09,3480.57C3722.09,3480.99 3723.24,3481.2 3724.55,3481.2C3729.71,3481.2 3732.3,3478.55 3732.3,3473.25C3732.3,3472.08 3732.15,3470.98 3731.85,3469.95C3731.55,3468.93 3731.08,3467.92 3730.43,3466.94C3729.77,3465.96 3729.09,3465.07 3728.37,3464.28C3727.65,3463.48 3726.72,3462.52 3725.57,3461.39L3715.84,3452.06C3712.53,3448.88 3710.87,3445.19 3710.87,3441C3710.87,3437.26 3711.98,3434.37 3714.2,3432.32C3716.42,3430.27 3719.43,3429.23 3723.22,3429.21C3723.31,3429.21 3723.39,3429.21 3723.45,3429.21C3727.45,3429.21 3730.51,3430.29 3732.63,3432.45C3734.79,3434.66 3736.05,3438.22 3736.4,3443.15L3732.03,3444.27C3731.72,3440.57 3730.93,3437.78 3729.65,3435.93C3728.41,3434.16 3726.42,3433.28 3723.69,3433.28L3723.29,3433.28ZM3670.01,3484.71L3664.95,3484.71L3662.23,3470.04L3649.12,3470.04L3646.34,3484.71L3641.34,3484.71L3652.93,3429.8L3658.36,3429.8L3670.01,3484.71ZM3683.84,3484.71L3678.64,3484.71L3678.64,3429.8L3683.84,3429.8L3683.84,3458.74L3698.51,3429.8L3703.47,3429.8L3692.11,3453.38L3705.89,3484.71L3700.76,3484.71L3688.27,3456.1L3683.84,3464.31L3683.84,3484.71ZM3754.56,3480.43C3755.76,3480.96 3757.23,3481.23 3759,3481.23C3760.77,3481.23 3762.25,3480.96 3763.44,3480.42C3764.63,3479.88 3765.54,3479.07 3766.17,3477.98C3766.8,3476.9 3767.24,3475.7 3767.49,3474.38C3767.75,3473.05 3767.88,3471.46 3767.88,3469.61L3767.88,3444.77C3767.88,3442.92 3767.75,3441.33 3767.49,3440.02C3767.24,3438.7 3766.8,3437.52 3766.17,3436.46C3765.54,3435.4 3764.63,3434.61 3763.44,3434.09C3762.25,3433.57 3760.77,3433.31 3759,3433.31C3757.23,3433.31 3755.76,3433.57 3754.56,3434.09C3753.37,3434.61 3752.46,3435.4 3751.83,3436.46C3751.2,3437.52 3750.76,3438.7 3750.51,3440.02C3750.25,3441.33 3750.13,3442.92 3750.13,3444.77L3750.13,3469.61C3750.13,3471.46 3750.25,3473.05 3750.51,3474.38C3750.76,3475.7 3751.2,3476.9 3751.83,3477.98C3752.46,3479.07 3753.37,3479.88 3754.56,3480.43ZM3649.85,3466.26L3661.53,3466.26L3655.67,3436.66L3649.85,3466.26Z" style="fill:white;fill-rule:nonzero;"/>
            </g>
        </g>
    </g>
</svg>
