<?xml version="1.0" encoding="UTF-8" standalone="no"?>
<!DOCTYPE svg PUBLIC "-//W3C//DTD SVG 1.1//EN" "http://www.w3.org/Graphics/SVG/1.1/DTD/svg11.dtd">
<svg width="100%" height="100%" viewBox="0 0 280 280" version="1.1" xmlns="http://www.w3.org/2000/svg" xmlns:xlink="http://www.w3.org/1999/xlink" xml:space="preserve" xmlns:serif="http://www.serif.com/" style="fill-rule:evenodd;clip-rule:evenodd;stroke-linejoin:round;stroke-miterlimit:1.41421;">
    <g transform="matrix(1,0,0,1,-2625.16,-2645.62)">
        <g id="Artboard2" transform="matrix(0.558395,0,0,0.558395,1913.86,2247.1)">
            <rect x="1273.83" y="713.681" width="501.437" height="501.437" style="fill:none;"/>
            <clipPath id="_clip1">
                <rect x="1273.83" y="713.681" width="501.437" height="501.437"/>
            </clipPath>
            <g clip-path="url(#_clip1)">
                <g transform="matrix(1.96934,0,0,1.78869,-3979.89,-4121.09)">
                    <rect x="2667.75" y="2702.96" width="254.621" height="280.337" style="fill:white;"/>
                </g>
                <g transform="matrix(1.72556,0,0,1.72556,-2337.79,-1505.53)">
                    <path d="M2233.91,1435.78L2117.57,1435.78C2117.57,1435.78 2117.57,1463.43 2117.57,1491.77C2117.57,1507.77 2123.93,1523.12 2135.25,1534.44C2146.57,1545.76 2161.92,1552.11 2177.92,1552.11C2206.26,1552.11 2233.91,1552.11 2233.91,1552.11L2233.91,1435.78Z" style="fill:rgb(49,166,79);"/>
                </g>
                <g transform="matrix(1.72282,0,0,1.72556,-2115.74,-1505.53)">
                    <path d="M2233.91,1435.78L2117.57,1435.78L2117.57,1552.11C2117.57,1552.11 2145.75,1552.11 2174.37,1552.11C2190.16,1552.11 2205.3,1545.85 2216.47,1534.7C2227.64,1523.56 2233.91,1508.43 2233.91,1492.67C2233.91,1464.02 2233.91,1435.78 2233.91,1435.78Z" style="fill:rgb(54,54,54);"/>
                </g>
                <g transform="matrix(1.72556,0,0,1.72556,-2337.79,-1721.46)">
                    <path d="M2233.91,1435.78C2233.91,1435.78 2206.08,1435.78 2177.64,1435.78C2144.47,1435.78 2117.57,1462.68 2117.57,1495.85C2117.57,1524.29 2117.57,1552.11 2117.57,1552.11L2233.91,1552.11L2233.91,1435.78Z" style="fill:rgb(54,54,54);"/>
                </g>
                <g transform="matrix(1.72282,0,0,1.72556,-2115.74,-1721.46)">
                    <path d="M2233.91,1496.1C2233.91,1462.79 2206.86,1435.78 2173.49,1435.78C2145.18,1435.78 2117.57,1435.78 2117.57,1435.78L2117.57,1552.11L2233.91,1552.11C2233.91,1552.11 2233.91,1524.45 2233.91,1496.1Z" style="fill:rgb(49,166,79);"/>
                </g>
            </g>
        </g>
    </g>
</svg>
