<?xml version="1.0" encoding="UTF-8" standalone="no"?>
<!DOCTYPE svg PUBLIC "-//W3C//DTD SVG 1.1//EN" "http://www.w3.org/Graphics/SVG/1.1/DTD/svg11.dtd">
<svg width="100%" height="100%" viewBox="0 0 280 384" version="1.1" xmlns="http://www.w3.org/2000/svg" xmlns:xlink="http://www.w3.org/1999/xlink" xml:space="preserve" xmlns:serif="http://www.serif.com/" style="fill-rule:evenodd;clip-rule:evenodd;stroke-linejoin:round;stroke-miterlimit:1.41421;">
    <g transform="matrix(1,0,0,1,-2938.06,-3137.54)">
        <g id="Artboard2" transform="matrix(0.558395,0,0,0.764889,2226.76,2591.65)">
            <rect x="1273.83" y="713.681" width="501.437" height="501.437" style="fill:none;"/>
            <g transform="matrix(1.72556,0,0,1.25972,-2337.79,-906.422)">
                <path d="M2233.91,1435.78L2117.57,1435.78C2117.57,1435.78 2117.57,1463.43 2117.57,1491.77C2117.57,1507.77 2123.93,1523.12 2135.25,1534.44C2146.57,1545.76 2161.92,1552.11 2177.92,1552.11C2206.26,1552.11 2233.91,1552.11 2233.91,1552.11L2233.91,1435.78Z" style="fill:rgb(49,166,79);"/>
            </g>
            <g transform="matrix(1.72282,0,0,1.25972,-2115.74,-906.422)">
                <path d="M2233.91,1435.78L2117.57,1435.78L2117.57,1552.11C2117.57,1552.11 2145.75,1552.11 2174.37,1552.11C2190.16,1552.11 2205.3,1545.85 2216.47,1534.7C2227.64,1523.56 2233.91,1508.43 2233.91,1492.67C2233.91,1464.02 2233.91,1435.78 2233.91,1435.78Z" style="fill:rgb(54,54,54);"/>
            </g>
            <g transform="matrix(1.72556,0,0,1.25972,-2337.79,-1064.06)">
                <path d="M2233.91,1435.78C2233.91,1435.78 2206.08,1435.78 2177.64,1435.78C2144.47,1435.78 2117.57,1462.68 2117.57,1495.85C2117.57,1524.29 2117.57,1552.11 2117.57,1552.11L2233.91,1552.11L2233.91,1435.78Z" style="fill:rgb(54,54,54);"/>
            </g>
            <g transform="matrix(1.72282,0,0,1.25972,-2115.74,-1064.06)">
                <path d="M2233.91,1496.1C2233.91,1462.79 2206.86,1435.78 2173.49,1435.78C2145.18,1435.78 2117.57,1435.78 2117.57,1435.78L2117.57,1552.11L2233.91,1552.11C2233.91,1552.11 2233.91,1524.45 2233.91,1496.1Z" style="fill:rgb(49,166,79);"/>
            </g>
            <g transform="matrix(1.79085,0,0,1.30738,-3987.78,-3388.27)">
                <path d="M3129.84,3485.41C3127.19,3485.41 3124.93,3485 3123.07,3484.2C3121.2,3483.39 3119.75,3482.21 3118.7,3480.65C3117.65,3479.1 3116.89,3477.33 3116.43,3475.36C3115.97,3473.38 3115.73,3471.09 3115.73,3468.48L3115.73,3445.7C3115.73,3443.12 3115.97,3440.86 3116.45,3438.91C3116.92,3436.97 3117.69,3435.25 3118.76,3433.76C3119.84,3432.27 3121.3,3431.14 3123.15,3430.37C3125.01,3429.6 3127.24,3429.21 3129.84,3429.21C3132.45,3429.21 3134.68,3429.6 3136.53,3430.37C3138.38,3431.14 3139.85,3432.28 3140.92,3433.78C3141.99,3435.28 3142.76,3437 3143.24,3438.95C3143.71,3440.89 3143.95,3443.14 3143.95,3445.7L3143.95,3468.55C3143.95,3470.6 3143.81,3472.46 3143.53,3474.11C3143.26,3475.77 3142.78,3477.31 3142.11,3478.75C3141.44,3480.18 3140.57,3481.38 3139.51,3482.34C3138.45,3483.3 3137.1,3484.05 3135.47,3484.59C3133.84,3485.14 3131.96,3485.41 3129.84,3485.41ZM3094.13,3433.28C3091.72,3433.35 3089.83,3433.98 3088.45,3435.17C3087.07,3436.36 3086.38,3438.16 3086.38,3440.57C3086.38,3442.07 3086.67,3443.43 3087.26,3444.66C3087.84,3445.88 3088.84,3447.18 3090.25,3448.55L3099.92,3457.72C3102.42,3460.11 3104.38,3462.52 3105.82,3464.96C3107.25,3467.4 3107.97,3470.04 3107.97,3472.89C3107.97,3476.88 3106.82,3479.96 3104.51,3482.13C3102.2,3484.29 3099.15,3485.37 3095.35,3485.37C3091.01,3485.37 3087.71,3484.06 3085.47,3481.45C3083.23,3478.83 3081.93,3475.17 3081.58,3470.47L3086.18,3469.15C3086.34,3470.6 3086.53,3471.89 3086.76,3473C3086.99,3474.12 3087.34,3475.21 3087.79,3476.28C3088.24,3477.35 3088.79,3478.23 3089.44,3478.91C3090.09,3479.6 3090.92,3480.15 3091.93,3480.57C3092.93,3480.99 3094.09,3481.2 3095.39,3481.2C3100.55,3481.2 3103.14,3478.55 3103.14,3473.25C3103.14,3472.08 3102.99,3470.98 3102.69,3469.96C3102.39,3468.93 3101.92,3467.93 3101.26,3466.94C3100.61,3465.96 3099.93,3465.07 3099.21,3464.28C3098.49,3463.48 3097.56,3462.52 3096.41,3461.4L3086.68,3452.06C3083.37,3448.88 3081.71,3445.19 3081.71,3441C3081.71,3437.27 3082.82,3434.38 3085.04,3432.32C3087.26,3430.27 3090.27,3429.23 3094.06,3429.21C3094.15,3429.21 3094.23,3429.21 3094.29,3429.21C3098.29,3429.21 3101.35,3430.29 3103.47,3432.46C3105.63,3434.66 3106.89,3438.23 3107.24,3443.15L3102.87,3444.28C3102.56,3440.57 3101.77,3437.79 3100.49,3435.93C3099.25,3434.17 3097.26,3433.28 3094.53,3433.28L3094.13,3433.28ZM3040.85,3484.71L3035.79,3484.71L3033.07,3470.04L3019.96,3470.04L3017.18,3484.71L3012.18,3484.71L3023.76,3429.81L3029.2,3429.81L3040.85,3484.71ZM3054.68,3484.71L3049.48,3484.71L3049.48,3429.81L3054.68,3429.81L3054.68,3458.75L3069.35,3429.81L3074.31,3429.81L3062.95,3453.38L3076.73,3484.71L3071.6,3484.71L3059.11,3456.1L3054.68,3464.31L3054.68,3484.71ZM3125.4,3480.44C3126.6,3480.97 3128.07,3481.23 3129.84,3481.23C3131.61,3481.23 3133.09,3480.96 3134.28,3480.42C3135.47,3479.88 3136.38,3479.07 3137.01,3477.99C3137.64,3476.91 3138.08,3475.7 3138.33,3474.38C3138.59,3473.05 3138.72,3471.46 3138.72,3469.61L3138.72,3444.77C3138.72,3442.92 3138.59,3441.34 3138.33,3440.02C3138.08,3438.71 3137.64,3437.52 3137.01,3436.46C3136.38,3435.4 3135.47,3434.61 3134.28,3434.1C3133.09,3433.58 3131.61,3433.32 3129.84,3433.32C3128.07,3433.32 3126.6,3433.58 3125.4,3434.1C3124.21,3434.61 3123.3,3435.4 3122.67,3436.46C3122.04,3437.52 3121.6,3438.71 3121.35,3440.02C3121.09,3441.34 3120.97,3442.92 3120.97,3444.77L3120.97,3469.61C3120.97,3471.46 3121.09,3473.05 3121.35,3474.38C3121.6,3475.7 3122.04,3476.91 3122.67,3477.99C3123.3,3479.07 3124.21,3479.89 3125.4,3480.44ZM3020.68,3466.26L3032.38,3466.26L3026.51,3436.66L3020.68,3466.26Z" style="fill:rgb(54,54,54);fill-rule:nonzero;"/>
            </g>
        </g>
    </g>
</svg>
