<?xml version="1.0" encoding="UTF-8" standalone="no"?>
<!DOCTYPE svg PUBLIC "-//W3C//DTD SVG 1.1//EN" "http://www.w3.org/Graphics/SVG/1.1/DTD/svg11.dtd">
<svg width="100%" height="100%" viewBox="0 0 280 384" version="1.1" xmlns="http://www.w3.org/2000/svg" xmlns:xlink="http://www.w3.org/1999/xlink" xml:space="preserve" xmlns:serif="http://www.serif.com/" style="fill-rule:evenodd;clip-rule:evenodd;stroke-linejoin:round;stroke-miterlimit:1.41421;">
    <g transform="matrix(1,0,0,1,-3566.94,-2645.62)">
        <g id="Artboard5" transform="matrix(0.981788,0,0,1.19635,216.518,-399.821)">
            <rect x="3412.57" y="2545.62" width="285.194" height="320.492" style="fill:none;"/>
            <clipPath id="_clip1">
                <rect x="3412.57" y="2545.62" width="285.194" height="320.492"/>
            </clipPath>
            <g clip-path="url(#_clip1)">
                <g transform="matrix(0.837103,0,0,0.296274,3413.15,2510.58)">
                    <rect x="0" y="120" width="340" height="1080" style="fill:rgb(0,36,26);"/>
                </g>
                <g transform="matrix(0.689643,0,0,0.666787,2509.74,2019.59)">
                    <g transform="matrix(1.42308,0,0,1.20789,-1669.41,-764.554)">
                        <path d="M2233.91,1435.78L2117.57,1435.78C2117.57,1435.78 2117.57,1463.43 2117.57,1491.77C2117.57,1507.77 2123.93,1523.12 2135.25,1534.44C2146.57,1545.76 2161.92,1552.11 2177.92,1552.11C2206.26,1552.11 2233.91,1552.11 2233.91,1552.11L2233.91,1435.78Z" style="fill:white;"/>
                    </g>
                    <g transform="matrix(1.42308,0,0,1.20789,-1491.33,-764.554)">
                        <path d="M2233.91,1435.78L2117.57,1435.78L2117.57,1552.11C2117.57,1552.11 2145.81,1552.11 2174.46,1552.11C2190.23,1552.11 2205.35,1545.85 2216.5,1534.7C2227.64,1523.56 2233.91,1508.43 2233.91,1492.67C2233.91,1464.02 2233.91,1435.78 2233.91,1435.78Z" style="fill:white;"/>
                    </g>
                    <g transform="matrix(1.42308,0,0,1.20789,-1669.41,-915.704)">
                        <path d="M2233.91,1435.78C2233.91,1435.78 2206.08,1435.78 2177.64,1435.78C2144.47,1435.78 2117.57,1462.68 2117.57,1495.85C2117.57,1524.29 2117.57,1552.11 2117.57,1552.11L2233.91,1552.11L2233.91,1435.78Z" style="fill:white;"/>
                    </g>
                    <g transform="matrix(1.42308,0,0,1.20789,-1491.33,-915.704)">
                        <path d="M2233.91,1496.1C2233.91,1480.11 2227.55,1464.76 2216.24,1453.45C2204.93,1442.14 2189.58,1435.78 2173.59,1435.78C2145.24,1435.78 2117.57,1435.78 2117.57,1435.78L2117.57,1552.11L2233.91,1552.11C2233.91,1552.11 2233.91,1524.45 2233.91,1496.1Z" style="fill:white;"/>
                    </g>
                </g>
                <g transform="matrix(1.01855,0,0,0.835879,-220.535,334.202)">
                    <path d="M3759,2993.48C3756.35,2993.48 3754.09,2993.08 3752.23,2992.27C3750.36,2991.46 3748.91,2990.28 3747.86,2988.73C3746.81,2987.17 3746.05,2985.4 3745.59,2983.43C3745.12,2981.45 3744.89,2979.16 3744.89,2976.56L3744.89,2953.77C3744.89,2951.19 3745.13,2948.93 3745.61,2946.99C3746.08,2945.04 3746.85,2943.33 3747.92,2941.84C3748.99,2940.35 3750.46,2939.22 3752.31,2938.44C3754.17,2937.67 3756.39,2937.28 3759,2937.28C3761.61,2937.28 3763.84,2937.67 3765.69,2938.44C3767.54,2939.22 3769.01,2940.35 3770.08,2941.85C3771.15,2943.35 3771.92,2945.08 3772.39,2947.02C3772.87,2948.96 3773.11,2951.21 3773.11,2953.77L3773.11,2976.62C3773.11,2978.68 3772.97,2980.53 3772.69,2982.19C3772.42,2983.84 3771.94,2985.39 3771.27,2986.82C3770.6,2988.26 3769.73,2989.45 3768.67,2990.41C3767.61,2991.38 3766.26,2992.13 3764.63,2992.67C3763,2993.21 3761.12,2993.48 3759,2993.48ZM3723.29,2941.36C3720.88,2941.42 3718.99,2942.05 3717.61,2943.24C3716.23,2944.44 3715.54,2946.24 3715.54,2948.64C3715.54,2950.14 3715.83,2951.51 3716.42,2952.73C3717,2953.96 3718,2955.25 3719.41,2956.62L3729.08,2965.79C3731.58,2968.18 3733.54,2970.59 3734.98,2973.03C3736.41,2975.47 3737.13,2978.11 3737.13,2980.96C3737.13,2984.96 3735.98,2988.04 3733.67,2990.2C3731.36,2992.36 3728.31,2993.45 3724.51,2993.45C3720.16,2993.45 3716.87,2992.14 3714.63,2989.52C3712.39,2986.91 3711.09,2983.25 3710.74,2978.54L3715.34,2977.22C3715.5,2978.68 3715.69,2979.96 3715.92,2981.08C3716.15,2982.19 3716.49,2983.28 3716.95,2984.36C3717.4,2985.43 3717.95,2986.3 3718.6,2986.99C3719.25,2987.67 3720.08,2988.22 3721.09,2988.64C3722.09,2989.06 3723.24,2989.27 3724.55,2989.27C3729.71,2989.27 3732.3,2986.62 3732.3,2981.33C3732.3,2980.16 3732.15,2979.06 3731.85,2978.03C3731.55,2977 3731.08,2976 3730.43,2975.02C3729.77,2974.03 3729.09,2973.15 3728.37,2972.35C3727.65,2971.56 3726.72,2970.6 3725.57,2969.47L3715.84,2960.13C3712.53,2956.95 3710.87,2953.27 3710.87,2949.07C3710.87,2945.34 3711.98,2942.45 3714.2,2940.4C3716.42,2938.34 3719.43,2937.3 3723.22,2937.28C3723.31,2937.28 3723.39,2937.28 3723.45,2937.28C3727.45,2937.28 3730.51,2938.37 3732.63,2940.53C3734.79,2942.74 3736.05,2946.3 3736.4,2951.22L3732.03,2952.35C3731.72,2948.64 3730.93,2945.86 3729.65,2944.01C3728.41,2942.24 3726.42,2941.36 3723.69,2941.36L3723.29,2941.36ZM3670.01,2992.78L3664.95,2992.78L3662.23,2978.11L3649.12,2978.11L3646.34,2992.78L3641.34,2992.78L3652.93,2937.88L3658.36,2937.88L3670.01,2992.78ZM3683.84,2992.78L3678.64,2992.78L3678.64,2937.88L3683.84,2937.88L3683.84,2966.82L3698.51,2937.88L3703.47,2937.88L3692.11,2961.46L3705.89,2992.78L3700.76,2992.78L3688.27,2964.17L3683.84,2972.38L3683.84,2992.78ZM3754.56,2988.51C3755.76,2989.04 3757.23,2989.3 3759,2989.3C3760.77,2989.3 3762.25,2989.03 3763.44,2988.49C3764.63,2987.95 3765.54,2987.14 3766.17,2986.06C3766.8,2984.98 3767.24,2983.78 3767.49,2982.45C3767.75,2981.13 3767.88,2979.54 3767.88,2977.68L3767.88,2952.85C3767.88,2950.99 3767.75,2949.41 3767.49,2948.1C3767.24,2946.78 3766.8,2945.6 3766.17,2944.53C3765.54,2943.47 3764.63,2942.69 3763.44,2942.17C3762.25,2941.65 3760.77,2941.39 3759,2941.39C3757.23,2941.39 3755.76,2941.65 3754.56,2942.17C3753.37,2942.69 3752.46,2943.47 3751.83,2944.53C3751.2,2945.6 3750.76,2946.78 3750.51,2948.1C3750.25,2949.41 3750.13,2950.99 3750.13,2952.85L3750.13,2977.68C3750.13,2979.54 3750.25,2981.13 3750.51,2982.45C3750.76,2983.78 3751.2,2984.98 3751.83,2986.06C3752.46,2987.14 3753.37,2987.96 3754.56,2988.51ZM3649.85,2974.34L3661.53,2974.34L3655.67,2944.73L3649.85,2974.34Z" style="fill:white;fill-rule:nonzero;"/>
                </g>
            </g>
        </g>
    </g>
</svg>
